<?xml version="1.0" encoding="UTF-8"?>
<svg id="Layer_2" data-name="Layer 2" xmlns="http://www.w3.org/2000/svg" viewBox="0 0 16.04 16.052">
  <g id="Layer_1-2" data-name="Layer 1">
    <g id="Generative_Object" data-name="Generative Object">
      <g>
        <path d="M14.865,15.539c-.045-.422-.051-.714-.352-1.044l-3.755-3.715c.109-.121.018-.434.02-.627-.01.01-.019.019-.029.029.01-.01.019-.019.029-.029.074-.075.151-.147.224-.224.075-.08.143-.17.217-.25.861.664,3.978,3.453,4.326,4.288.253.608-.095,1.301-.681,1.572Z" style="fill: #fff;"/>
        <path d="M14.865,15.539c-.388.18-.864.115-1.205-.133-1.026-.746-3.191-3.159-3.941-4.216.077-.089.174-.156.259-.237.263-.249.518-.513.772-.772.01-.01.019-.019.029-.029-.002.192.088.506-.02.627l3.755,3.715c.301.33.307.623.352,1.044Z" style="fill: #281b1c;"/>
        <path d="M11.22,9.678c-.074.081-.142.17-.217.25-.072.077-.15.148-.224.224-.01.01-.019.019-.029.029-.254.259-.509.523-.772.772-.085.08-.182.147-.259.237-.238-.336-.472-.718-.688-1.07-.058-.094-.08-.203-.18-.27.308-.24.834-.881,1.075-1.21.09.052.153.132.228.202.405.382.656.521,1.066.836Z" style="fill: #fff;"/>
        <g>
          <path d="M5.244,2.116c4.584-.546,5.475,6.491.821,7.032-4.623.538-5.462-6.479-.821-7.032Z" style="fill: #fff; stroke: #181616; stroke-linecap: round; stroke-linejoin: round; stroke-width: .86px;"/>
          <path d="M5.224,2.859c1.544-.187,3.014.76,3.227,2.327-.858.471-.602-.004-.9-.548-.453-.83-1.436-1.248-2.366-1.115-.169.024-.741.323-.782.313-.03-.007-.345-.484-.332-.528.033-.116,1.001-.431,1.154-.45Z" style="fill: #fff;"/>
        </g>
      </g>
      <g>
        <path d="M10.359,4.555C9.586.743,4.332-.527,1.93,2.55c-2.589,2.945-.349,7.828,3.528,7.939,0,0,.41.019.41.019l-.046.819c-2.243.033-4.435-1.328-5.329-3.397C-2.482.258,8.904-3.524,11.159,4.37c.031.136.057.273.077.412-.023.129-.678-.008-.803.093-.022-.107-.047-.215-.075-.32h0Z" style="fill: #181616;"/>
        <path d="M11.003,9.929c-.072.077-.15.148-.224.224-.01.01-.019.019-.029.029-.254.259-.509.523-.772.772" style="fill: none; stroke: #181616; stroke-linecap: round; stroke-linejoin: round; stroke-width: .821px;"/>
        <path d="M10.154,8.842c.405.382.656.521,1.066.836.861.664,3.978,3.453,4.326,4.288.253.608-.095,1.301-.681,1.572-.388.18-.864.115-1.205-.133-1.026-.746-3.191-3.159-3.941-4.216-.238-.336-.472-.718-.688-1.07" style="fill: none; stroke: #181616; stroke-linecap: round; stroke-linejoin: round; stroke-width: .821px;"/>
        <path d="M11.226,6.549c-.382,1.564-1.265,3.255-2.756,4.019-.635.32-1.267.503-1.907.722,0,0-.26-.78-.26-.78l.39-.13c2.161-.467,3.589-2.366,3.788-4.521.09-.141.59-.015.773-.045.107.124-.021.531-.028.736h0Z" style="fill: #181616;"/>
      </g>
    </g>
  </g>
</svg>